<svg width="517" height="126" viewBox="0 0 517 126" fill="none" xmlns="http://www.w3.org/2000/svg">
<path d="M98.3599 19.8934C110.328 19.8934 120.067 29.6307 120.067 41.6C120.067 53.5693 110.328 63.3067 98.3599 63.3067C86.3932 63.3067 76.6532 53.5693 76.6532 41.6C76.6532 29.6307 86.3932 19.8934 98.3599 19.8934ZM98.3599 71.2C114.683 71.2 127.96 57.9227 127.96 41.6C127.96 25.2773 114.683 12 98.3599 12C82.0372 12 68.7599 25.2773 68.7599 41.6C68.7599 57.9227 82.0372 71.2 98.3599 71.2Z" fill="#F14C39"/>
<path d="M122.007 69.6947C119.689 71.6494 117.117 73.296 114.363 74.636C127.019 80.2814 136.199 92.3627 137.631 106.72H59.0893C60.52 92.3627 69.7 80.2814 82.3573 74.636C79.604 73.296 77.0306 71.6494 74.7133 69.6947C60.5613 77.8947 51 93.1693 51 110.668V114.615H145.721V110.668C145.721 93.1693 136.159 77.8947 122.007 69.6947Z" fill="#3A579B"/>
<path d="M418.053 84.5293C407.8 84.5293 399.457 76.1866 399.457 65.9319C399.457 55.6786 407.8 47.3359 418.053 47.3359C428.308 47.3359 436.649 55.6786 436.649 65.9319C436.649 76.1866 428.308 84.5293 418.053 84.5293ZM432.039 87.0653C438.885 82.5199 443.412 74.7479 443.412 65.9319C443.412 51.9479 432.036 40.5733 418.053 40.5733C404.069 40.5733 392.695 51.9479 392.695 65.9319C392.695 74.7479 397.221 82.5199 404.067 87.0653C388.576 92.7813 377.479 107.651 377.479 125.103H384.243C384.243 106.459 399.409 91.2906 418.053 91.2906C436.699 91.2906 451.865 106.459 451.865 125.103H458.628C458.628 107.651 447.531 92.7813 432.039 87.0653Z" fill="#3A579B"/>
<path d="M465.852 70.16C472.697 65.6133 477.224 57.8427 477.224 49.0267C477.224 35.0427 465.849 23.668 451.865 23.668C445.091 23.668 438.943 26.3533 434.389 30.696C432.703 32.304 431.247 34.1413 430.052 36.1586C432.161 37.012 434.169 38.0653 436.029 39.3267C437.225 37.3813 438.763 35.6747 440.568 34.2893C443.703 31.88 447.613 30.4306 451.865 30.4306C462.119 30.4306 470.461 38.772 470.461 49.0267C470.461 57.5387 464.705 64.716 456.887 66.9147C455.287 67.364 453.607 67.6227 451.865 67.6227C451.267 67.6227 450.677 67.588 450.093 67.5333C449.973 69.968 449.589 72.3293 448.955 74.5919C449.921 74.5093 450.876 74.3853 451.865 74.3853C453.239 74.3853 454.585 74.492 455.916 74.652C472.653 76.6626 485.677 90.9253 485.677 108.196H492.439C492.439 90.7453 481.343 75.876 465.852 70.16Z" fill="#3A579B"/>
<path d="M384.243 74.3853C385.229 74.3853 386.185 74.5093 387.151 74.5919C386.516 72.3293 386.135 69.968 386.013 67.5333C385.429 67.588 384.84 67.6227 384.243 67.6227C382.5 67.6227 380.82 67.364 379.22 66.9147C371.401 64.716 365.645 57.5387 365.645 49.0267C365.645 38.772 373.987 30.4306 384.243 30.4306C388.492 30.4306 392.404 31.88 395.539 34.2893C397.344 35.6747 398.881 37.3813 400.077 39.3267C401.937 38.0653 403.945 37.012 406.055 36.1586C404.861 34.1413 403.404 32.304 401.716 30.696C397.163 26.3533 391.016 23.668 384.243 23.668C370.257 23.668 358.883 35.0427 358.883 49.0267C358.883 57.8427 363.411 65.6133 370.255 70.16C354.764 75.876 343.668 90.7453 343.668 108.196H350.429C350.429 90.9253 363.453 76.6626 380.192 74.652C381.523 74.492 382.868 74.3853 384.243 74.3853Z" fill="#3A579B"/>
<path d="M489.52 46.4907C496.365 41.9454 500.892 34.1747 500.892 25.3587C500.892 11.3747 489.517 9.69332e-07 475.533 9.69332e-07C468.759 9.69332e-07 462.612 2.68533 458.059 7.028C456.371 8.636 454.915 10.4747 453.72 12.4907C455.829 13.344 457.837 14.3973 459.697 15.6587C460.893 13.7133 462.431 12.0067 464.236 10.6214C467.371 8.21202 471.281 6.76133 475.533 6.76133C485.787 6.76133 494.129 15.104 494.129 25.3587C494.129 32.852 489.665 39.3014 483.263 42.24C483.548 43.844 483.724 45.4853 483.724 47.1693C483.724 48.7067 483.559 50.2013 483.32 51.672C498.215 55.2013 509.345 68.5694 509.345 84.5294H516.107C516.107 67.0774 505.011 52.208 489.52 46.4907Z" fill="#F14C3A"/>
<path d="M352.383 47.1693C352.383 45.4853 352.559 43.844 352.843 42.24C346.441 39.3014 341.977 32.852 341.977 25.3587C341.977 15.104 350.319 6.76133 360.573 6.76133C364.824 6.76133 368.735 8.21202 371.871 10.6214C373.675 12.0067 375.213 13.7133 376.409 15.6587C378.269 14.3973 380.277 13.344 382.387 12.4907C381.193 10.4747 379.735 8.636 378.048 7.028C373.495 2.68533 367.348 9.69332e-07 360.573 9.69332e-07C346.591 9.69332e-07 335.215 11.3747 335.215 25.3587C335.215 34.1747 339.741 41.9454 346.588 46.4907C331.096 52.208 320 67.0774 320 84.5294H326.761C326.761 68.5694 337.891 55.2013 352.787 51.672C352.548 50.2013 352.383 48.7067 352.383 47.1693Z" fill="#F14C3A"/>
<path d="M418.053 6.76133C427.095 6.76133 434.569 13.2787 436.227 21.8427C439.929 19.6107 442.601 19.1107 442.601 19.1107C439.808 8.14402 429.877 5.37094e-06 418.053 5.37094e-06C406.229 5.37094e-06 396.3 8.14402 393.505 19.1107C393.505 19.1107 396.177 19.6107 399.879 21.8427C401.537 13.2787 409.012 6.76133 418.053 6.76133Z" fill="#F14C3A"/>
<path d="M248.07 32L237.444 42.628L250.698 55.8826H196V70.9107H250.698L237.444 84.1653L248.07 94.792L279.466 63.396L248.07 32Z" fill="#F14C39"/>
</svg>
