<svg width="197" height="126" viewBox="0 0 197 126" fill="none" xmlns="http://www.w3.org/2000/svg">
<path d="M98.156 84.972C87.9026 84.972 79.56 76.6293 79.56 66.3746C79.56 56.1213 87.9026 47.7786 98.156 47.7786C108.411 47.7786 116.752 56.1213 116.752 66.3746C116.752 76.6293 108.411 84.972 98.156 84.972ZM112.141 87.508C118.988 82.9626 123.515 75.1906 123.515 66.3746C123.515 52.3906 112.139 41.016 98.156 41.016C84.172 41.016 72.7973 52.3906 72.7973 66.3746C72.7973 75.1906 77.324 82.9626 84.1693 87.508C68.6787 93.224 57.5813 108.093 57.5813 125.545H64.3453C64.3453 106.901 79.512 91.7333 98.156 91.7333C116.801 91.7333 131.968 106.901 131.968 125.545H138.731C138.731 108.093 127.633 93.224 112.141 87.508Z" fill="#3A579B"/>
<path d="M145.955 70.6027C152.8 66.056 157.327 58.2853 157.327 49.4693C157.327 35.4853 145.952 24.1107 131.968 24.1107C125.193 24.1107 119.045 26.796 114.492 31.1387C112.805 32.7467 111.349 34.584 110.155 36.6013C112.264 37.4546 114.272 38.508 116.132 39.7693C117.328 37.824 118.865 36.1174 120.671 34.732C123.805 32.3227 127.716 30.8733 131.968 30.8733C142.221 30.8733 150.564 39.2147 150.564 49.4693C150.564 57.9813 144.808 65.1587 136.989 67.3574C135.389 67.8067 133.709 68.0654 131.968 68.0654C131.369 68.0654 130.78 68.0306 130.196 67.976C130.076 70.4106 129.692 72.772 129.057 75.0346C130.024 74.952 130.979 74.828 131.968 74.828C133.341 74.828 134.688 74.9347 136.019 75.0947C152.756 77.1053 165.78 91.368 165.78 108.639H172.541C172.541 91.188 161.445 76.3187 145.955 70.6027Z" fill="#3A579B"/>
<path d="M64.3453 74.828C65.332 74.828 66.288 74.952 67.2533 75.0346C66.6186 72.772 66.2373 70.4106 66.116 67.976C65.532 68.0306 64.9426 68.0654 64.3453 68.0654C62.6026 68.0654 60.9226 67.8067 59.3227 67.3574C51.504 65.1587 45.748 57.9813 45.748 49.4693C45.748 39.2147 54.0893 30.8733 64.3453 30.8733C68.5946 30.8733 72.5067 32.3227 75.6413 34.732C77.4467 36.1174 78.984 37.824 80.18 39.7693C82.04 38.508 84.048 37.4546 86.1574 36.6013C84.964 34.584 83.5067 32.7467 81.8187 31.1387C77.2653 26.796 71.1186 24.1107 64.3453 24.1107C50.36 24.1107 38.9853 35.4853 38.9853 49.4693C38.9853 58.2853 43.5133 66.056 50.3573 70.6027C34.8667 76.3187 23.7706 91.188 23.7706 108.639H30.532C30.532 91.368 43.556 77.1053 60.2947 75.0947C61.6253 74.9347 62.9706 74.828 64.3453 74.828Z" fill="#3A579B"/>
<path d="M169.623 46.9334C176.468 42.388 180.995 34.6173 180.995 25.8013C180.995 11.8173 169.62 0.442688 155.636 0.442688C148.861 0.442688 142.715 3.12801 138.161 7.47068C136.473 9.07868 135.017 10.9174 133.823 12.9334C135.932 13.7867 137.94 14.84 139.8 16.1013C140.996 14.156 142.533 12.4494 144.339 11.064C147.473 8.65471 151.384 7.20402 155.636 7.20402C165.889 7.20402 174.232 15.5467 174.232 25.8013C174.232 33.2947 169.768 39.7441 163.365 42.6827C163.651 44.2867 163.827 45.928 163.827 47.612C163.827 49.1494 163.661 50.644 163.423 52.1147C178.317 55.644 189.448 69.012 189.448 84.972H196.209C196.209 67.52 185.113 52.6507 169.623 46.9334Z" fill="#F14C3A"/>
<path d="M32.4853 47.612C32.4853 45.928 32.6613 44.2867 32.9453 42.6827C26.544 39.7441 22.08 33.2947 22.08 25.8013C22.08 15.5467 30.4213 7.20402 40.676 7.20402C44.9266 7.20402 48.8373 8.65471 51.9733 11.064C53.7773 12.4494 55.316 14.156 56.512 16.1013C58.372 14.84 60.38 13.7867 62.4893 12.9334C61.296 10.9174 59.8373 9.07868 58.1506 7.47068C53.5973 3.12801 47.4506 0.442688 40.676 0.442688C26.6933 0.442688 15.3173 11.8173 15.3173 25.8013C15.3173 34.6173 19.844 42.388 26.6907 46.9334C11.1987 52.6507 0.102661 67.52 0.102661 84.972H6.86399C6.86399 69.012 17.9933 55.644 32.8893 52.1147C32.6506 50.644 32.4853 49.1494 32.4853 47.612Z" fill="#F14C3A"/>
<path d="M98.1559 7.20402C107.197 7.20402 114.672 13.7214 116.329 22.2854C120.032 20.0534 122.704 19.5534 122.704 19.5534C119.911 8.5867 109.98 0.442694 98.1559 0.442694C86.3319 0.442694 76.4026 8.5867 73.6079 19.5534C73.6079 19.5534 76.2799 20.0534 79.9812 22.2854C81.6399 13.7214 89.1146 7.20402 98.1559 7.20402Z" fill="#F14C3A"/>
</svg>
