<svg width="196" height="125" viewBox="0 0 196 125" fill="none" xmlns="http://www.w3.org/2000/svg">
<path d="M98.3599 19.8934C110.328 19.8934 120.067 29.6307 120.067 41.6C120.067 53.5693 110.328 63.3067 98.3599 63.3067C86.3932 63.3067 76.6532 53.5693 76.6532 41.6C76.6532 29.6307 86.3932 19.8934 98.3599 19.8934ZM98.3599 71.2C114.683 71.2 127.96 57.9227 127.96 41.6C127.96 25.2773 114.683 12 98.3599 12C82.0372 12 68.7599 25.2773 68.7599 41.6C68.7599 57.9227 82.0372 71.2 98.3599 71.2Z" fill="#F14C39"/>
<path d="M122.007 69.6947C119.689 71.6494 117.117 73.296 114.363 74.636C127.019 80.2814 136.199 92.3627 137.631 106.72H59.0893C60.52 92.3627 69.7 80.2814 82.3573 74.636C79.604 73.296 77.0306 71.6494 74.7133 69.6947C60.5613 77.8947 51 93.1693 51 110.668V114.615H145.721V110.668C145.721 93.1693 136.159 77.8947 122.007 69.6947Z" fill="#3A579B"/>
</svg>
